<svg xmlns="http://www.w3.org/2000/svg" width="50" height="50" viewBox="0 0 50 50"><path fill="#fff" d="M15.7 42.6c-1.8 0-3.5-.7-4.7-2l-1.6-1.6c-2.6-2.6-2.6-6.9 0-9.5l8.9-8.9c2.6-2.6 6.9-2.6 9.5 0l1.7 1.7-1 1-1.7-1.7c-2.1-2.1-5.5-2.1-7.5 0l-8.9 8.9c-2.1 2.1-2.1 5.4 0 7.4l1.7 1.7c1 1.1 2.3 1.6 3.7 1.6 1.4 0 2.7-.5 3.7-1.6l6-5.9 1 1-6 5.9c-1.3 1.4-2.9 2-4.8 2zm11.4-11.2c-1.7 0-3.5-.7-4.8-2l1-1c2.1 2.1 5.5 2.1 7.5 0l8.9-8.9c2.1-2.1 2.1-5.4 0-7.4l-1.7-1.7c-2.1-2.1-5.4-2.1-7.4 0l-6.3 6.2-1-1 6.3-6.2c2.6-2.6 6.9-2.6 9.4 0l1.7 1.7c2.6 2.6 2.6 6.9 0 9.4l-8.9 8.9c-1.3 1.3-3.1 2-4.7 2z"/></svg>