<svg xmlns="http://www.w3.org/2000/svg" width="100" height="100" viewBox="0 0 100 100"><path fill="#FF1D25" d="M73.2 32.6h-2.8c-2-4.8-5.6-8.8-10.4-11.2l2.2-5c.4-.8 0-1.6-.8-2-.8-.4-1.6 0-2 .8l-2.2 5c-4.6-1.6-9.8-1.6-14.6 0l-2.2-5c-.4-.8-1.2-1.2-2-.8-.8.4-1.2 1.2-.8 2l2.2 5c-4.6 2.4-8.2 6.4-10.2 11.2h-3.2c-3.4 0-6 2.8-6 6v18.2c0 3.4 2.8 6 6 6 .6 0 1 0 1.6-.2v1c0 4.6 3.8 8.2 8.2 8.2h.8v7.6c0 3.4 2.8 6 6 6s6-2.8 6-6v-7.6h1.6v7.6c0 3.4 2.8 6 6 6s6-2.8 6-6v-7.6h.8c4.6 0 8.2-3.8 8.2-8.2v-1l1.2.2c3.4 0 6-2.8 6-6v-18.2c.6-3.2-2.2-6-5.6-6zm-31-8.8l1-.4c4.4-1.6 9.4-1.6 13.6 0l.6.2h.6c6 2.8 10.4 8.6 11 15v.8h-37.8v-.6c.8-6.6 5-12.4 11-15zm-15.4 36c-1.6 0-3-1.4-3-3v-18.2c0-1.6 1.4-3 3-3h2.2l-.6 3v20.6c-.6.4-1.2.6-1.6.6zm37 9h-3.8v10.6c0 1.6-1.4 3-3 3s-3-1.4-3-3v-10.6h-7.6v10.6c0 1.6-1.4 3-3 3s-3-1.4-3-3v-10.6h-3.8c-3 0-5.2-2.4-5.2-5.2v-21.2h37.8v21.2c-.2 3-2.6 5.2-5.4 5.2zm12.6-12c0 1.6-1.4 3-3 3-.4 0-.8-.2-1.2-.4v-21c-.2-1-.2-2-.6-2.8h1.8c1.6 0 3 1.4 3 3v18.2zm-35.4-20.2c2.6 0 4.8-2.2 4.8-4.8 0-2.6-2.2-4.8-4.8-4.8s-4.8 2.2-4.8 4.8c0 2.8 2.2 4.8 4.8 4.8zm0-6.4c1 0 1.8.8 1.8 1.8s-.8 1.8-1.8 1.8-1.8-.8-1.8-1.8.8-1.8 1.8-1.8zm18.2 6.4c2.6 0 4.8-2.2 4.8-4.8 0-2.6-2.2-4.8-4.8-4.8-2.6 0-4.8 2.2-4.8 4.8 0 2.8 2.2 4.8 4.8 4.8zm0-6.4c1 0 1.8.8 1.8 1.8s-.8 1.8-1.8 1.8-1.8-.8-1.8-1.8.8-1.8 1.8-1.8z"/></svg>