<svg xmlns="http://www.w3.org/2000/svg" width="50" height="50" viewBox="0 0 50 50"><path fill="#FF1D25" d="M5.3 34c0-.1.1-.4.5-.5 1.4-.7 4.6-1.7 6.6-2.4 1.3-.4 1.3-1.6 1.3-2.3 0-.9-.3-1.7-.7-2.4-.2-.4-.4-1.1-.5-1.8l-.1-.5-.3-.4c-.1-.1-.5-.6-.7-1.7-.2-.8-.1-1-.1-1.1v.1h.1v-.30000000000000004h.1c.1-.8-.1-2.7-.3-3.5 0-.4.1-1.6.8-2.5.7-.8 1.7-1.4 3.1-1.5h1.1c1.8.2 2.6.8 3.1 1.5.8.9.8 2.2.8 2.5-.2.8-.4 2.7-.3 3.5l.2.4c0 .1.1.3-.1 1.1-.2 1.1-.6 1.6-.7 1.7l-.3.4-.1.5c-.1.7-.3 1.4-.6 1.9-.3.6-.4 1.3-.4 2.4 0 .8 0 1.9 1.3 2.4.8.2 1.8.6 2.8.8-1.7.6-3.3 1.2-4.1 1.6-1.2.5-1.9 1.5-1.9 2.4v.8h-11v-3.1zm12.6 2.1c0-.2.3-.7.8-.9 1.7-.7 5.7-2.1 8.2-2.8 1.4-.5 1.4-1.6 1.4-2.4 0-1.1-.4-2.1-.8-2.8-.3-.6-.6-1.6-.7-2.4l-.1-.5-.3-.4c-.2-.2-.7-.8-.9-2.3-.2-1.1-.1-1.4 0-1.6v-.1l.1-.2v-.1c.2-.8 0-3-.3-4.2-.1-.5.1-2.1 1-3.4.9-1.1 2.4-1.8 4.2-2h1.4c2.3.2 3.5 1.1 4.1 2 1 1.3 1.1 2.9 1 3.4-.2 1.2-.4 3.5-.3 4.1v.1c.1.2.1.3.2.4.1.2.2.5-.1 1.6-.3 1.5-.7 2.1-.8 2.3l-.4.4v.5c-.1.8-.5 1.9-.8 2.4-.3.8-.5 1.6-.5 2.8 0 .8 0 2.1 1.3 2.4 2.5.8 6.7 2.3 8.2 2.9.5.2.6.4.6.8v4h-26.5v-4zm-14.2-2.1v3.2s.3 1.2 1.2 1.2h11.400000000000002v1.6c0 .6.4 1.5 1.6 1.5h27c1.2 0 1.5-.9 1.5-1.5v-4c0-.8-.3-1.8-1.5-2.3-1.6-.8-5.7-2.3-8.4-3-.2 0-.2-.1-.2-.9 0-.9.1-1.7.3-2.2.4-.7.8-1.9.8-2.9.5-.4.9-1.3 1.3-3 .3-1.4.1-2-.1-2.4v-.2c-.1-.4 0-2.2.3-3.6.1-.9-.1-2.9-1.4-4.6-.8-1.1-2.4-2.4-5.3-2.5h-1.6c-2.9.1-4.5 1.4-5.4 2.5-1.3 1.7-1.5 3.7-1.3 4.6.2 1.4.4 3.2.3 3.6l-.1.2c-.2.5-.3 1 0 2.4.3 1.7.8 2.6 1.2 3 .1 1 .5 2.3.8 2.9.3.7.6 1.4.6 2.2 0 .8 0 .8-.2.9l-1.8.6c-1.5-.6-3.5-1.2-4.8-1.6-.2-.1-.2-.1-.2-.8 0-.8.1-1.3.3-1.7.2-.6.6-1.5.7-2.4.3-.4.8-1 1-2.4.2-1.2.1-1.6-.1-2.1v-.1c-.1-.3 0-1.7.2-2.8.2-.8 0-2.4-1.1-3.9-.7-.8-1.9-1.9-4.2-2h-1.3c-2.4.1-3.6 1.1-4.2 2-1.1 1.4-1.3 3-1.1 3.9.2 1.1.3 2.5.2 2.8v.1c-.2.5-.3.8-.1 2.1.3 1.4.8 2.1 1 2.4.1.8.5 1.8.7 2.4.3.5.5 1 .5 1.7 0 .8 0 .8-.2.8-2 .7-5.4 1.8-6.7 2.4-1.1.4-1.6 1.3-1.6 1.9z"/></svg>