<svg xmlns="http://www.w3.org/2000/svg" width="50" height="50" viewBox="0 0 50 50"><path fill="#FFC20E" d="M31.1 38.8v-12.3h-1.5v13.8h6.1v-1.5h-4.6zm-7.6 0v-4.7h-1.5v6.2h6v-1.5h-4.5zm0-7.7v-4.6h-1.5v6.1h6v-1.5h-4.5zm7.6-7.6v-4.6h-1.5v6.1h6.1v-1.5h-4.6zm-7.6 0v-4.6h-1.5v6.1h6v-1.5h-4.5zm-7.6 15.3v-4.7h-1.5v6.2h6.1v-1.5h-4.6zm0-7.7v-4.6h-1.5v6.1h6.1v-1.5h-4.6zm0-7.6v-4.6h-1.5v6.1h6.1v-1.5h-4.6zm21.3 16.8c0 .8-.6 1.5-1.5 1.5h-21.3c-.9 0-1.5-.7-1.5-1.5v-30.6c0-.8.6-1.5 1.5-1.5h21.3c.9 0 1.5.7 1.5 1.5v30.6zm-1.6-33.6h-21.2c-1.7 0-3.1 1.4-3.1 3v30.6c0 1.6 1.4 3 3.1 3h21.3c1.7 0 3.1-1.4 3.1-3v-30.6c0-1.6-1.5-3-3.2-3zm-19.7 5.3h18.3v3h-18.3v-3zm-1.5 4.6h21.3v-6.1h-21.3v6.1z"/></svg>