<svg xmlns="http://www.w3.org/2000/svg" width="50" height="50" viewBox="0 0 50 50"><path fill="#BE438C" d="M24.2 27.2h-8v1.5h9.6v-13.2h-1.5l-.1 11.7zm17.6-10.2l-8.8-8.8h2.9c3.2 0 5.8 2.6 5.8 5.8l.1 3zm-5.9-10.2h-4.4v2.1l9.6 9.6h2.1v-4.4c0-4.1-3.2-7.3-7.3-7.3zm-18.9 1.4l-8.8 8.8v-2.9c0-3.3 2.6-5.8 5.8-5.8l3-.1zm1.4-1.4h-4.4c-4 0-7.3 3.3-7.3 7.3v4.4h2.1l9.6-9.6v-2.1zm6.6 35c-8 0-14.6-6.5-14.6-14.5s6.6-14.6 14.6-14.6 14.5 6.6 14.5 14.6-6.5 14.5-14.5 14.5zm0-30.7c-8.9 0-16.1 7.2-16.1 16.1 0 4 1.5 7.7 3.9 10.5l-3.8 4.5 1.1.9 3.7-4.4c2.9 2.7 6.8 4.4 11.1 4.4s8.2-1.7 11.1-4.4l3.6 4.4 1.2-.9-3.8-4.6c2.4-2.8 3.9-6.4 3.9-10.4.2-8.9-7-16.1-15.9-16.1z"/></svg>