<svg xmlns="http://www.w3.org/2000/svg" width="100" height="100" viewBox="0 0 100 100"><path fill="#fff" d="M50 2c-26.5 0-48 21.5-48 48s21.5 48 48 48 48-21.5 48-48-21.5-48-48-48z"/><g fill="#333"><path d="M50 0c-27.6 0-50 22.4-50 50s22.4 50 50 50 50-22.4 50-50-22.4-50-50-50zm0 96.2c-25.5 0-46.2-20.7-46.2-46.2s20.7-46.2 46.2-46.2 46.2 20.7 46.2 46.2-20.7 46.2-46.2 46.2zM66.5 30.8l-16.5 16.5-16.5-16.5-2.7 2.7 16.5 16.5-16.5 16.5 2.7 2.7 16.5-16.5 16.5 16.5 2.7-2.7-16.5-16.5 16.5-16.5z"/></g></svg>