<svg xmlns="http://www.w3.org/2000/svg" width="100" height="43" viewBox="0 0 100 43"><g fill="#DB0962"><path d="M44.6 21c-.9 0-1.7.7-1.7 1.6v12.4c0 2.6-2.1 4.8-4.7 4.8s-4.7-2.1-4.7-4.8v-12.5c0-.9-.7-1.6-1.6-1.6-.9 0-1.6.7-1.6 1.6v12.5c0 4.3 3.6 7.9 8 7.9s8-3.6 8-7.9v-12.5c0-.8-.8-1.5-1.7-1.5zM91 22.7c.2-.3.3-.6.3-.9 0-.9-.7-1.6-1.6-1.6-.5 0-.9.1-1.3.6l-11.3 16.1v-8.3c0-4.3-3.5-7.9-7.9-7.9-2.6 0-4.9 1.3-6.3 3.2-1.4-1.9-3.7-3.2-6.3-3.2-4.4 0-7.9 3.6-7.9 7.9v12.5c0 .9.7 1.6 1.6 1.6.9 0 1.6-.7 1.6-1.6v-12.6c0-2.6 2.2-4.8 4.7-4.8s4.7 2.1 4.8 4.6l.1.2v12.5c0 .9.6 1.6 1.5 1.6h.1c.9 0 1.6-.7 1.6-1.6v-12.5l-.1-.2c.1-2.6 2.2-4.6 4.7-4.6 2.6 0 4.7 2.1 4.7 4.8v12.5c0 .7.5 1.3 1.1 1.5.3.2.6.3.9.3.4 0 1.1-.3 1.3-.6l9-13c.1-.2.2 0 .2 0 1.6 4.1 5.1 5.4 5.1 8.1 0 1.3-1.1 2.5-2.5 2.5-1.8 0-1.6-1.5-3.1-1.5-.9 0-1.6.7-1.6 1.6 0 1.4 2.3 3.1 4.7 3.1 3.1 0 5.6-2.5 5.6-5.6 0-4.6-5.6-7.6-5.6-10.8.1-1.6 1.7-3.5 1.9-3.9zM20.7 20.6c-2.6 0-4.9 1.3-6.4 3.2-1.4-1.9-3.8-3.2-6.4-3.2-4.4 0-8 3.6-8 7.9v12.5c0 .9.7 1.6 1.6 1.6s1.6-.7 1.6-1.6v-12.5c0-2.6 2.2-4.8 4.8-4.8 2.5 0 4.7 2.1 4.8 4.6v12.7c0 .9.7 1.6 1.6 1.6.9 0 1.6-.7 1.6-1.6v-12.7c.1-2.6 2.2-4.6 4.7-4.6 2.6 0 4.7 2.1 4.7 4.8v12.5c0 .9.8 1.6 1.7 1.6.9 0 1.7-.7 1.7-1.6v-12.5c0-4.3-3.6-7.9-8-7.9zM38.1 16.9c.2-.2.3-.5.3-.8 0-.6-.5-1.1-1-1.1-.3 0-.5.1-.7.2-.7.6-1.6 1-2.7 1-1.7 0-3-1.1-3.2-2.7 0-.3.2-.3.2-.3h6.9c.7 0 1.2-.5 1.2-1.2 0-2.6-1.8-5.6-5.4-5.6-3.3 0-5.5 2.7-5.5 5.9 0 3.5 2.5 5.9 5.8 5.9 1.8.2 3.1-.3 4.1-1.3zm-7.3-5.5c.2-1.5 1.3-2.8 2.9-2.8 1.7 0 2.7 1.3 2.9 3h-5.6c-.3 0-.2-.2-.2-.2zM50.1 17v-6.1c0-2.6-1.5-4.3-4-4.3-1.8 0-2.8.9-3.3 1.8-.1.2-.1 0-.1 0v-.4c0-.7-.7-1.3-1.5-1.3-.7 0-1.4.6-1.4 1.3v9c0 .7.7 1.3 1.4 1.3s1.5-.6 1.5-1.3v-5.2c0-1.8 1.1-2.8 2.6-2.8s2.5 1 2.5 2.8v5.2c0 .7.5 1.3 1.2 1.3s1.1-.6 1.1-1.3zM51.5 9.2h.3v5.8c0 2.5 1.4 3.3 3.3 3.3.7 0 1.2-.1 1.8-.3.4-.2.7-.5.7-1 0-.6-.5-1.1-1.1-1.1 0 .1-.2.1-.5.1-.9 0-1.3-.4-1.3-1.4v-5.3c0-.3.1-.1.1-.1h1.8c.6 0 1.1-.6 1.1-1.2s-.5-1.2-1.1-1.2h-1.8c-.3 0-.1-.2-.1-.2v-1.7c0-.7-.7-1.3-1.4-1.3s-1.5.6-1.5 1.3v1.7c0 .3-.1.2-.1.2h-.2c-.6 0-1.1.6-1.1 1.2s.4 1.2 1.1 1.2zM60.1 6.7c-.7 0-1.3.6-1.3 1.3v9c0 .7.6 1.3 1.3 1.3.7 0 1.3-.6 1.3-1.3v-9c0-.7-.6-1.3-1.3-1.3zM60.1 5.2c.8 0 1.6-.5 1.6-1.3v-.1c0-.8-.7-1.3-1.6-1.3-.8 0-1.6.5-1.6 1.3v.1c.1.8.8 1.3 1.6 1.3zM66.5 18.4c1.7 0 2.9-.7 3.5-1.5.2-.2.1 0 .1 0v.2c0 .6.5 1.1 1.2 1.1s1.2-.5 1.2-1.2v-5.6c0-1.5-.3-2.7-1.1-3.5-.8-.8-2-1.3-3.7-1.3-1.5 0-2.6.3-3.6.7-.4.2-.7.6-.7 1 0 .6.5 1.1 1.1 1.1.1 0 .3 0 .4-.1.7-.3 1.5-.5 2.5-.5 1.8 0 2.8.9 2.8 2.5v.3c-.7-.3-1.8-.5-3-.5-2.8 0-4.7 1.2-4.7 3.7-.1 2.4 1.8 3.6 4 3.6zm-1.7-3.6c0-1.2 1-1.9 2.7-1.9 1 0 1.9.2 2.6.5v.8c0 1.4-1.3 2.4-3.1 2.4-1.2-.1-2.2-.7-2.2-1.8zM75.4 18.3c.7 0 1.5-.6 1.5-1.3v-13.4c0-.7-.7-1.3-1.5-1.3-.7 0-1.4.6-1.4 1.3v13.4c0 .7.7 1.3 1.4 1.3z"/><circle cx="97.8" cy="40.5" r="2.2"/><path d="M7.1 18.4c1.5 0 2.9-.5 3.9-1.4.1-.1.2-.2.2-.3l.2-.2 3.7-5.1c.5.9 1 1.6 1.5 2.1.6.6 1 1.1 1 1.7 0 .5-.5 1-1 1-.4 0-.5-.1-.7-.3-.2-.2-.4-.5-.9-.5-.6 0-1.1.5-1.1 1.1 0 .5.4 1 .9 1.3.5.3 1.1.6 1.8.6 1 0 1.9-.5 2.4-1.2l.1-.1 4.1-5.7c.5.9 1 1.6 1.5 2.1.6.6 1 1.1 1 1.7 0 .5-.5 1-1 1-.4 0-.5-.1-.7-.3-.2-.2-.4-.5-.9-.5-.6 0-1.1.5-1.1 1.1 0 .5.4 1 .9 1.3.5.3 1.1.6 1.8.6 1.7 0 3.2-1.4 3.2-3.2 0-1.3-.8-2.3-1.5-3.2-.7-1-1.4-1.8-1.4-2.5s.7-1.6.9-1.9c.1-.2.2-.4.2-.6 0-.6-.5-1.1-1.1-1.1-.3 0-.6.1-.9.4l-4.9 6.8c-.3-.5-.6-.9-.9-1.3-.7-.9-1.4-1.7-1.4-2.4s.7-1.6.9-1.9c.1-.2.2-.4.2-.6 0-.6-.5-1.1-1.1-1.1-.3 0-.6.1-.9.4l-6.4 8.8-.1.2c-.7.5-1.5.9-2.4.9-2.1 0-3.7-1.7-3.7-3.7 0-.6.1-1.1.4-1.6.9.7 2.1 1.1 3.4 1.1 1 0 2-.2 2.7-.7.7-.5 1.2-1.2 1.2-2 0-.9-.5-1.6-1.2-2-.8-.5-1.8-.7-2.8-.7-1.3 0-2.4.4-3.4 1.1-.2-.6-.3-1.1-.3-1.7 0-2.1 1.7-3.7 3.7-3.7.9 0 1.8.4 2.5.9.2.2.5.3.7.3.6 0 1.1-.5 1.1-1.1 0-.3-.1-.6-.4-.8-1-1-2.4-1.5-3.9-1.5-3.3 0-5.9 2.7-5.9 5.9 0 1.2.4 2.3.9 3.3-.6.9-.9 2-.9 3.2 0 3.3 2.6 5.9 5.9 6zm-1.9-9.2c.6-.3 1.2-.5 1.9-.5.4 0 .9 0 1.3.2.2 0 .3 0 .4.1.1.1.1.1.1.2s0 .1-.1.2c-.2.2-1 .3-1.7.3s-1.3-.2-1.9-.5z"/></g></svg>