<svg xmlns="http://www.w3.org/2000/svg" width="50" height="50" viewBox="0 0 50 50"><path fill="#BE438C" d="M25 44.6c-10.8 0-19.6-8.8-19.6-19.6s8.8-19.6 19.6-19.6 19.6 8.8 19.6 19.6-8.8 19.6-19.6 19.6zm0-37.7c-10 0-18.1 8.1-18.1 18.1 0 10 8.1 18.1 18.1 18.1s18.1-8.1 18.1-18.1c0-10-8.1-18.1-18.1-18.1zM30.3 23.1c-1.7 0-3.1-1.4-3.1-3.1s1.4-3.1 3.1-3.1 3.1 1.4 3.1 3.1-1.4 3.1-3.1 3.1zm0-4.7c-.9 0-1.6.7-1.6 1.6s.7 1.6 1.6 1.6 1.6-.7 1.6-1.6-.7-1.6-1.6-1.6zM19.6 23.1c-1.7 0-3.1-1.4-3.1-3.1s1.4-3.1 3.1-3.1 3.1 1.4 3.1 3.1-1.4 3.1-3.1 3.1zm0-4.7c-.9 0-1.6.7-1.6 1.6s.7 1.6 1.6 1.6 1.6-.7 1.6-1.6-.7-1.6-1.6-1.6zM25 39.8c-6.8 0-12.7-4.6-14.4-11.2-.1-.4.1-.8.5-.9.4-.1.8.1.9.5 1.5 5.9 6.8 10.1 12.9 10.1.4 0 .8.3.8.8s-.3.7-.7.7zM25 39.8c-.4 0-.8-.3-.8-.8s.3-.8.8-.8c6.1 0 11.4-4.1 12.9-10.1.1-.4.5-.6.9-.5.4.1.6.5.5.9-1.6 6.7-7.5 11.3-14.3 11.3z"/></svg>