<svg xmlns="http://www.w3.org/2000/svg" width="100" height="100" viewBox="0 0 100 100"><path fill="#FF1D25" d="M39.2 87.8c-5.6 0-9.8-6-12.4-9.8-7.2-10.2-11.2-27-4.8-38.2 3.4-6 9.6-9.8 16.2-9.8h.2c2.8 0 5.6 1 7.8 2 1.6.6 3 1.2 4 1.2.8 0 2.2-.6 3.8-1.2 2.8-1.2 6.4-2.6 10.2-2.2 2.8.2 9.8 1.2 14.4 7.8l.8 1.2-1.2.8c-1.2.8-7.2 4.8-7.2 12.6 0 9.4 7.8 13 8.8 13.2l1.2.6-.4 1.4c-.6 1.8-2 6.2-5.2 10.6-2.8 4.2-6.4 9.4-12.2 9.6h-.2c-2.6 0-4.4-.8-6-1.4-1.6-.8-3.2-1.4-5.8-1.4-2.6 0-4.4.8-6 1.4-1.6.6-3.4 1.4-5.8 1.6h-.2zm-.6-54.8c-5.8 0-11 3.2-13.8 8.4-5.8 10-2 25.4 4.6 35 3 4.4 6.2 8.6 10 8.6h.2c1.8 0 3.2-.6 4.6-1.2 1.8-.8 4-1.6 7.2-1.6s5.2.8 7 1.6c1.6.6 2.8 1.2 4.8 1.2 4.2 0 6.8-3.4 10-8.2 2.4-3.4 3.8-6.8 4.4-8.6-2.8-1.6-9.2-6-9.4-15.4 0-7.6 4.6-12.2 7.2-14.2-3.8-4.6-9-5.2-11.2-5.4h-1c-2.8 0-5.4 1-7.8 2-1.8.8-3.4 1.4-4.8 1.4-1.6 0-3.2-.6-5-1.4-2.4-1.2-4.8-2.2-7-2.2zm11.8-1h-2l-.2-1.2c-.6-4.8 1.8-9.6 4.2-12.4 2.8-3.4 7.8-5.8 11.8-6h1.4l.2 1.4c.4 4.2-1 9-4.2 12.6-2.8 3.4-7.2 5.6-11.2 5.6zm12.4-16.6c-2.8.6-6 2.6-8 4.8-1.8 2-3.6 5.4-3.6 8.8 2.8-.2 6-2 8.2-4.6 2-2.6 3.4-5.8 3.4-9z"/></svg>