<svg xmlns="http://www.w3.org/2000/svg" width="50" height="50" viewBox="0 0 50 50"><path fill="#fff" d="M30.3 4.8h-20.1v40.4h29.6v-30.9l-9.5-9.5zm.4 2.5l6.5 6.5h-6.5v-6.5zm-19 36.4v-37.4h17.5v9.1h9.1v28.4l-26.6-.1zm4.2-34h9.1v1.5h-9.1v-1.5zm0 4.1h9.1v1.5h-9.1v-1.5zm0 4.1h18.2v1.5h-18.2v-1.5zm0 4.1h15.3v1.5h-15.3v-1.5zm0 4.1h8.2v1.5h-8.2v-1.5zm0 4.1h8.2v1.5h-8.2v-1.5zm0 4.1h8.2v1.5h-8.2v-1.5zm0 4.1h6.4v1.5h-6.4v-1.5zm10-12.3h8.2v1.5h-8.2v-1.5zm0 4.1h6.4v1.5h-6.4v-1.5zm0 4.1h8.2v1.5h-8.2v-1.5zm0 4.1h8.2v1.5h-8.2v-1.5z"/></svg>