<svg xmlns="http://www.w3.org/2000/svg" width="50" height="50" viewBox="0 0 50 50"><path fill="#fff" d="M14.4 4.7c-.8 0-2.7.3-3.8 1l-.3.3c-1.3.9-3.2 2.2-3.2 5 0 4.3 3.3 10.9 10.2 20.1 7.5 10 16.1 14.2 19 14.2 2.5 0 5.2-3.4 6.3-5.3.6-1.1.1-1.7-.1-1.9-.6-.4-4.9-3.2-6.8-4.6-.6-.4-1-.6-1.5-.6s-.8.2-.9.3c-.1.1-.6.6-1.3 1.2-1.4 1.2-3.6 1-5.2-.4-1.4-1.3-8.5-10.2-10.6-13-.7-.9-1-1.9-.8-2.9.3-1.7 1.9-2.8 2.8-3.4l.2-.1c.8-.6.7-1.6.5-1.9-.2-.7-3-6.6-3.3-7.3-.3-.5-.5-.7-1.2-.7zm21.9 42.2c-3.7 0-12.8-4.7-20.3-14.9-7.1-9.5-10.5-16.3-10.5-21 0-3.6 2.6-5.3 3.9-6.3l.3-.2c1.5-1.1 3.8-1.4 4.8-1.4 1.5 0 2.1.9 2.5 1.7.4.7 3.1 6.7 3.4 7.4.5 1.1.3 2.8-1 3.8l-.2.1c-.7.5-1.9 1.3-2.1 2.4-.1.6.1 1 .5 1.6 2.2 3 9.1 11.5 10.4 12.7 1 1 2.2 1 3 .4.9-.8 1.2-1.2 1.2-1.2h.1c.1-.1.8-.7 1.9-.7.8 0 1.6.3 2.4.9l6.9 4.6.1.1c.6.5 1.5 2 .5 3.9-1.1 1.9-4.4 6.1-7.8 6.1z"/></svg>