<svg xmlns="http://www.w3.org/2000/svg" width="50" height="50" viewBox="0 0 50 50"><path fill="#FFC20E" d="M41 10.8c-1.2 0-2.2-.9-2.2-2.1 0-1.2 1-2.2 2.2-2.2 1.2 0 2.2 1 2.2 2.2-.1 1.2-1.1 2.1-2.2 2.1zm-9.3 24.1c-1.2 0-2.2-.9-2.2-2.1s1-2.2 2.2-2.2 2.2 1 2.2 2.2-1 2.1-2.2 2.1zm-12-9.9c-1.2 0-2.2-.9-2.2-2.2 0-1.2 1-2.1 2.2-2.1 1.2 0 2.2.9 2.2 2.1-.1 1.3-1.1 2.2-2.2 2.2zm-10.7 18.5c-1.2 0-2.2-1-2.2-2.2 0-1.2 1-2.1 2.2-2.1 1.2 0 2.2.9 2.2 2.1 0 1.2-1 2.2-2.2 2.2zm32-38.4c-2 0-3.6 1.6-3.6 3.6 0 1.2.7 2.3 1.6 2.9l-6.7 17.7-.6-.1c-.8 0-1.7.3-2.2.8l-6.7-5.6c.3-.5.5-1 .5-1.7 0-1.9-1.7-3.5-3.6-3.5-2 0-3.6 1.6-3.6 3.5 0 1.1.5 2 1.2 2.7l-7.1 12.6c-.4-.1-.7-.2-1.2-.2-1.9 0-3.6 1.6-3.6 3.5 0 2 1.7 3.6 3.6 3.6 2 0 3.6-1.6 3.6-3.6 0-1-.5-2-1.2-2.6l7.2-12.5c.3.1.7.2 1.1.2.8 0 1.6-.3 2.2-.8l6.7 5.6c-.2.5-.4 1.1-.4 1.7 0 1.9 1.6 3.5 3.6 3.5 1.9 0 3.6-1.6 3.6-3.5 0-1.2-.7-2.4-1.7-3l6.7-17.6h.7c1.9 0 3.6-1.6 3.6-3.5-.2-2.1-1.8-3.7-3.7-3.7z"/></svg>