<svg xmlns="http://www.w3.org/2000/svg" width="50" height="50" viewBox="0 0 50 50"><path fill="#fff" d="M42.7 6.9c-.3-.1-.6-.1-.8.2l-17.4 17.4-3.2 3.2-6.3 6.2-7.9 7.9c-.2.2-.3.5-.2.8.1.3.4.5.7.5h34.7c.4 0 .8-.3.8-.8v-34.7c0-.3-.2-.5-.4-.7zm-30.3 31.8l.7.7c.1.1.3.2.5.2s.4-.1.5-.2c.3-.3.3-.8 0-1.1l-.7-.7 2.1-2.1 1.7 1.7c.1.1.3.2.5.2s.4-.1.5-.2c.3-.3.3-.8 0-1.1l-1.7-1.7 2.1-2.1.7.7c.1.2.3.2.5.2s.4-.1.5-.2c.3-.3.3-.8 0-1.1l-.7-.7 2.1-2.1 1.7 1.7c.1.1.3.2.5.2s.4-.1.5-.2c.3-.3.3-.8 0-1.1l-1.7-1.7 2.1-2.1.7.7c.1.2.3.2.5.2s.4-.1.5-.2c.3-.3.3-.8 0-1.1l-.4-.5 2.1-2.1 1.7 1.7c.1.1.3.2.5.2s.4-.1.5-.2c.3-.3.3-.8 0-1.1l-1.7-1.7 2.1-2.1.7.7c.1.2.3.2.5.2s.4-.1.5-.2c.3-.3.3-.8 0-1.1l-.7-.7 2.1-2.1 1.7 1.7c.1.1.3.2.5.2s.4-.1.5-.2c.3-.3.3-.8 0-1.1l-1.7-1.7 2.1-2.1.7.7c.1.2.3.2.5.2s.4-.1.5-.2c.3-.3.3-.8 0-1.1l-.7-.7 2.9-2.9v32.2h-32l3-2.8zm23.2-14.6c-.3-.1-.6-.1-.8.2l-10.6 10.4c-.2.2-.3.5-.2.8s.4.5.7.5h10.5c.4 0 .8-.3.8-.8v-10.5c0-.3-.2-.5-.4-.6zm-1.1 2.5v8h-8l8-8z"/></svg>