<svg xmlns="http://www.w3.org/2000/svg" width="50" height="50" viewBox="0 0 50 50"><path fill="#00AEEF" d="M18.5 20c-.9 0-1.7.8-1.7 1.7 0 1 .8 1.7 1.7 1.7 1 0 1.7-.7 1.7-1.7-.1-.9-.8-1.7-1.7-1.7zm13.1 0c-.9 0-1.7.8-1.7 1.7 0 1 .8 1.7 1.7 1.7 1 0 1.7-.7 1.7-1.7 0-.9-.7-1.7-1.7-1.7zm-6.6 0c-.9 0-1.7.8-1.7 1.7 0 1 .8 1.7 1.7 1.7s1.7-.7 1.7-1.7c0-.9-.8-1.7-1.7-1.7zm18.3 12.5c0 1-.8 1.7-1.7 1.7h-5.1v4.3l-4.2-4.3h-24c-.9 0-1.7-.7-1.7-1.7v-21.6c0-.9.8-1.7 1.7-1.7h33.4c.9 0 1.7.8 1.7 1.7v21.6zm-1.6-25h-33.4c-1.7 0-3.3 1.5-3.3 3.4v21.7c0 1.9 1.6 3.3 3.3 3.3h23.4l6.5 6.6v-6.6h3.4c1.8 0 3.3-1.5 3.3-3.3v-21.7c.1-1.9-1.5-3.4-3.2-3.4z"/></svg>