<svg xmlns="http://www.w3.org/2000/svg" width="100" height="32" viewBox="0 0 100 32"><path fill="#FF1D25" d="M13.1 19.2c0-2.5-1.3-3.7-3.2-4.8l-2.2-1.3c-.9-.5-1.3-1-1.3-1.5 0-.9.7-1.1 1.5-1.1 1.2 0 2.9.3 4.4.8v-3.7c-1.3-.5-3-.8-4.9-.8-3.9 0-5.9 1.8-5.9 4.9 0 2.5 1.2 3.7 3.1 4.9l2.4 1.5c.6.4 1 .8 1 1.4 0 .9-.8 1.4-1.8 1.4-1.4 0-3.3-.3-4.9-.9v3.9c1.7.6 3.1.8 5 .8 4.5 0 6.8-2.2 6.8-5.5zm12.1-8.6v-3.5h-4.4v-5.5l-5.1 2v3.7l-2.1.3v3h2.1v8.6c0 3.5 1.6 5.5 5.4 5.5 1.5 0 3.1-.2 4.1-.5v-3.6c-.8.2-2.2.3-2.6.3-1.2 0-1.7-.4-1.7-1.8v-8.5h4.3zm15.7 13.8v-17.3h-5.1v13.3c-.5.2-1.3.5-2 .5-1.4 0-2-.5-2-2.8v-11h-5.1v10.9c0 2.3.3 3.7 1.1 4.8.8 1.1 2.6 1.9 4.3 1.9 1.4 0 3.1-.5 4.1-1l.2.7h4.5zm13-20.6v-3.4c-1-.2-2.6-.4-4.1-.4-3.8 0-5.4 2-5.4 5.5v1.7l-1.9.3v3.1h1.9v13.8h5.1v-13.8h3.3v-3.5h-3.3v-1.7c0-1.6.5-1.8 1.7-1.8.7 0 1.8.1 2.7.2zm11.3 0v-3.4c-1-.2-2.6-.4-4.1-.4-3.8 0-5.4 2-5.4 5.5v1.7l-1.9.3v3.1h1.9v13.8h5.1v-13.8h3.3v-3.5h-3.3v-1.7c0-1.6.5-1.8 1.7-1.8.7 0 1.8.1 2.7.2zm.1 19.2c0-.9-.5-1.4-1.4-1.4-.9 0-1.4.5-1.4 1.4s.5 1.4 1.4 1.4c.9 0 1.4-.5 1.4-1.4zm7 1v-1.6c-.7.2-1.4.3-1.9.3-1 0-1.8-.6-1.8-2.4s.7-2.4 1.8-2.4c.7 0 1.1.1 1.9.3v-1.7c-.7-.3-1.4-.4-2.1-.4-2.7 0-4 1.7-4 4.2 0 2.4 1.1 3.9 3.7 3.9.9.2 1.7 0 2.4-.2zm7.8-3.7c0-2.4-1.1-4.1-3.6-4.1-2.4 0-3.6 1.7-3.6 4.1 0 2.4 1.1 4.1 3.6 4.1s3.6-1.8 3.6-4.1zm-2.3 0c0 2-.6 2.5-1.2 2.5s-1.2-.5-1.2-2.5.6-2.5 1.2-2.5 1.2.5 1.2 2.5zm6 2.7c0-.9-.5-1.4-1.4-1.4-.9 0-1.4.5-1.4 1.4s.5 1.4 1.4 1.4c.8 0 1.4-.5 1.4-1.4zm7.9 1.2v-5c0-1.1-.1-1.7-.5-2.2-.4-.5-1.2-.9-2-.9-.7 0-1.4.2-1.9.5l-.1-.3h-2.1v7.9h2.4v-6.1c.2-.1.6-.2.9-.2.6 0 .9.2.9 1.3v5.1l2.4-.1zm7.3 0v-1.6h-3.5l3.4-4.9v-1.4h-5.9v1.6h3.2l-3.3 4.8v1.5h6.1zM0 27.4h100v4.4h-100z"/></svg>