<svg xmlns="http://www.w3.org/2000/svg" width="100" height="100" viewBox="0 0 100 100"><path fill="#DB0962" d="M38.2 77.6c-7.4 0-14.6-2.2-21-6.2-.6-.4-.8-1.2-.6-1.8.2-.6 1-1 1.6-1 1 .2 2 .2 3 .2 4.4 0 8.6-1.2 12.4-3.2-4.6-1.4-8.2-4.8-9.8-9.6-.2-.6 0-1 .4-1.4.2-.2.4-.4.8-.4-3.6-2.8-5.8-7-5.8-11.6v-.2c0-.6.4-1 .8-1.2.4-.2 1-.2 1.4 0l.4.2c-1.8-2.6-2.6-5.4-2.6-8.4 0-2.6.6-5.2 2-7.4.2-.4.6-.8 1.2-.8.4 0 1 .2 1.2.6 6 7.4 14.8 12 24.2 13v-1.4c0-8 6.6-14.6 14.6-14.6 3.8 0 7.4 1.4 10 4 2.4-.6 4.8-1.6 7-2.8.6-.4 1.2-.2 1.6.2.4.4.6 1 .4 1.6-.4 1.4-1.2 2.8-2 4 .6-.2 1.2-.4 1.8-.8.6-.2 1.4-.2 1.8.4s.4 1.2 0 1.8c-1.8 2.6-3.8 4.8-6.2 6.6v1c0 9.4-3.6 19-10 26.2-5 6-14 13-28.6 13zm-14.2-6c4.4 1.8 9.2 2.8 14 2.8 17.6 0 35.8-13.4 35.8-35.8v-1.6c0-.6.2-1 .6-1.2 1-.8 2-1.6 3-2.6l-3 .6c-.6 0-1.4-.4-1.6-1-.2-.6 0-1.4.6-1.8 1.2-.8 2.2-1.6 3-2.6-1.4.6-3 1-4.6 1.4-.6 0-1 0-1.4-.4-2.2-2.4-5.2-3.6-8.4-3.6-6.4 0-11.6 5.2-11.6 11.6 0 .8.2 1.8.4 2.6.2.4 0 1-.4 1.4s-.8.6-1.2.6c-10.2-.6-19.8-5-26.6-12.4-.4 1.2-.6 2.6-.6 3.8 0 3.8 2 7.6 5.2 9.6.6.4.8 1 .6 1.8-.2.6-.8 1-1.4 1-1.4 0-2.8-.4-4.2-.8.8 4.6 4.4 8.2 9.2 9.2.6.2 1.2.8 1.2 1.4 0 .6-.4 1.4-1.2 1.4-1.2.4-2.6.4-4 .6 2 3.6 5.8 5.8 10 5.8.6 0 1.2.4 1.4 1 .2.6 0 1.2-.4 1.6-4.2 3.2-9 5-14.4 5.6z"/></svg>